General 
http://www.imdb.co.uk/title/tt1517260/
Complete name                            : \The.Host.2013.Webrip Xvid Ac3 5.1-MiLLENiUM.avi
Source                                   : The.Host.2013.720p.KOR.HDRip.H-KTH [thanks]
Format                                   : AVI
Format/Info                              : Audio Video Interleave
File size                                : 1.96 GiB
Duration                                 : 2h 10mn
Overall bit rate                         : 2 152 Kbps
Writing application                      : VirtualDubMod 1.5.10.2 (build 2540/release)
Writing library                          : VirtualDubMod build 2540/release

Video
ID                                       : 0
Format                                   : MPEG-4 Visual
Format profile                           : Advanced Simple@L5
Format settings, BVOP                    : 2
Format settings, QPel                    : No
Format settings, GMC                     : No warppoints
Format settings, Matrix                  : Default (H.263)
Muxing mode                              : Packed bitstream
Codec ID                                 : XVID
Codec ID/Hint                            : XviD
Duration                                 : 2h 10mn
Bit rate                                 : 1 692 Kbps
Width                                    : 720 pixels
Height                                   : 278 pixels
Display aspect ratio                     : 2.590
Frame rate                               : 29.970 fps
Color space                              : YUV
Chroma subsampling                       : 4:2:0
Bit depth                                : 8 bits
Scan type                                : Progressive
Compression mode                         : Lossy
Bits/(Pixel*Frame)                       : 0.282
Stream size                              : 1.54 GiB (79%)
Writing library                          : XviD 1.2.1 (UTC 2008-12-04)

Audio
ID                                       : 1
Format                                   : AC-3
Format/Info                              : Audio Coding 3
Mode extension                           : CM (complete main)
Codec ID                                 : 2000
Duration                                 : 2h 10mn
Bit rate mode                            : Constant
Bit rate                                 : 448 Kbps
Channel(s)                               : 6 channels
Channel positions                        : Front: L C R, Side: L R, LFE
Sampling rate                            : 48.0 KHz
Bit depth                                : 16 bits
Compression mode                         : Lossy
Delay relative to video                  : 21ms
Stream size                              : 418 MiB (21%)
Alignment                                : Split accross interleaves
Interleave, duration                     : 33 ms (1.00 video frame)
Interleave, preload duration             : 500 ms


Notes:

cropped subs, alterd a/r, gamma, hue, saturation, brightness and contrast and sharpend up
reworked audio to 6 channel in soundforge, mixed back down in vegas then muxed back to vid.
enjoy  


Screens : 
http://i.imgur.com/4e69j8z.png 
http://i.imgur.com/cHcsOHr.png 
http://i.imgur.com/VF50p8l.png 
http://i.imgur.com/TXposLD.png